# xmcd CD database file
#
# Track frame offsets:
#	150
#	16602
#	27107
#	51965
#	71067
#	83395
#	99195
#	118160
#	137467
#	157217
#	174905
#	188360
#	206300
#
# Disc length: 2933 seconds
#
# Revision: 0
# Processed by: cddbd v1.4PL0 Copyright (c) Steve Scherf et al.
# Submitted via: Feurio! 1.66 - http://www.feurio.com
#
DISCID=940b730d
DTITLE=Stephen Dreyfuss - Summertime
DYEAR=1998
DGENRE=Blues
TTITLE0=Summertime
TTITLE1=What a Wonderful World
TTITLE2=Body and Soul
TTITLE3=Harlem Nocturne
TTITLE4=I Left My Heart in San Francisco
TTITLE5=Wave
TTITLE6=In A Sentimental Mood
TTITLE7=Don't Get Around Much Anymore
TTITLE8=Sleepwalk
TTITLE9=Stardust
TTITLE10=Danny Boy
TTITLE11=Morning
TTITLE12=America the Beatiful
EXTD=
EXTT0=
EXTT1=
EXTT2=
EXTT3=
EXTT4=
EXTT5=
EXTT6=
EXTT7=
EXTT8=
EXTT9=
EXTT10=
EXTT11=
EXTT12=
PLAYORDER=
